<?xml version="1.0" encoding="UTF-8"?>
<svg width="17px" height="17px" viewBox="0 0 17 17" version="1.1" xmlns="http://www.w3.org/2000/svg" xmlns:xlink="http://www.w3.org/1999/xlink">
    <!-- Generator: Sketch 54.1 (76490) - https://sketchapp.com -->
    <title>我的点赞</title>
    <desc>Created with Sketch.</desc>
    <g id="个人中心" stroke="none" stroke-width="1" fill="none" fill-rule="evenodd">
        <g id="1.4个人中心首页-厂商" transform="translate(-29.000000, -495.000000)">
            <g id="编组" transform="translate(12.000000, 440.000000)">
                <g id="我的点赞" transform="translate(15.000000, 54.000000)">
                    <rect id="矩形" x="0" y="0" width="20" height="20"></rect>
                    <path d="M11.3624007,2.03075314 C12.0660034,2.14193464 12.6593812,2.72659596 12.8274742,3.44448338 C13.1260002,4.67898139 13.0304719,5.99782399 12.643766,7.19877587 C13.8397068,7.20644356 15.0347292,7.23328048 16.23067,7.22561279 C17.2796443,7.2304051 18.1311322,8.32592623 17.983247,9.39652737 C17.7701454,10.8323022 17.4955015,12.257534 17.1896272,13.6750981 C17.0114302,14.418864 16.8635451,15.1817991 16.5585893,15.8833927 C16.2582263,16.5639002 15.563809,17.0067092 14.8491838,16.9980831 C13.7640736,17.0005102 10.1475586,17.0006325 3.99963877,16.9984498 L3.99963877,16.9984436 C3.44749612,16.9982476 3,16.5505926 3,15.9984499 L3.0000227,8.86907485 C3.0000227,8.31680264 3.44772779,7.86909755 4,7.86909755 C4.00359054,7.86909755 4.00718105,7.86911689 4.01077137,7.86915556 C4.73569206,7.87696458 5.25791064,7.87139487 5.57742711,7.85244641 C6.00454886,7.82177565 6.47392351,7.93391561 6.85419963,7.66650493 C7.87378057,7.02625285 8.71608302,6.02466091 9.10921873,4.84479518 C9.32140178,4.29272154 9.14687892,3.66492945 9.39672218,3.12627427 C9.71821166,2.35662994 10.5678624,1.86973165 11.3624007,2.03075314 Z" id="路径" stroke="#666666" stroke-width="1.5" fill-rule="nonzero"></path>
                    <path d="M5.5,9 L5.5,17" id="路径-11" stroke="#666666" stroke-width="1.5" stroke-linecap="round"></path>
                </g>
            </g>
        </g>
    </g>
</svg>